<?xml version="1.0" standalone="no"?>
<!DOCTYPE svg PUBLIC "-//W3C//DTD SVG 20010904//EN"
 "http://www.w3.org/TR/2001/REC-SVG-20010904/DTD/svg10.dtd">
<svg version="1.0" xmlns="http://www.w3.org/2000/svg"
 width="700.000000pt" height="700.000000pt" viewBox="0 0 700.000000 700.000000"
 preserveAspectRatio="xMidYMid meet">
<metadata>
Created by potrace 1.11, written by Peter Selinger 2001-2013
</metadata>
<g transform="translate(0.000000,700.000000) scale(0.100000,-0.100000)"
fill="#000000" stroke="none">
<path d="M3888 6989 c-24 -13 -122 -108 -117 -112 2 -2 22 -12 44 -22 41 -18
186 -104 195 -114 3 -3 31 -26 63 -50 75 -57 157 -147 159 -174 4 -52 -2 -81
-24 -112 -24 -36 -119 -97 -208 -134 -300 -125 -426 -232 -491 -416 -27 -77
-34 -123 -34 -235 0 -95 7 -157 24 -217 18 -61 11 -68 -60 -67 -83 1 -182 12
-261 29 -26 6 -26 6 -21 -42 7 -59 8 -303 2 -358 l-4 -39 60 -18 c33 -10 92
-34 131 -53 234 -113 541 -120 870 -20 l85 26 -8 72 c-4 40 -7 145 -6 234 l2
163 -27 6 c-15 3 -43 10 -62 15 -73 17 -104 19 -157 9 -51 -9 -178 -21 -263
-24 l-35 -1 -1 47 c-1 62 29 179 66 255 57 115 155 184 385 268 55 20 129 53
165 73 107 59 218 184 236 266 37 167 14 294 -80 434 -74 113 -232 242 -336
276 -107 34 -261 53 -292 35z"/>
<path d="M1729 5076 c-2 -2 -33 -7 -69 -11 -36 -4 -68 -9 -71 -11 -4 -2 -23
-6 -43 -10 -124 -19 -371 -123 -513 -216 -259 -168 -501 -427 -660 -703 -118
-206 -250 -543 -279 -714 -3 -14 -7 -34 -10 -43 -9 -31 -40 -216 -49 -293 -12
-106 -28 -442 -28 -585 -1 -111 9 -299 17 -350 3 -14 7 -45 10 -70 45 -350
178 -731 361 -1036 252 -419 625 -740 1009 -869 85 -29 238 -63 319 -71 70 -7
374 -7 386 0 5 4 41 9 80 12 80 7 103 -2 157 -65 l32 -36 498 -1 499 -1 51 52
c70 71 97 141 100 263 4 111 -17 177 -94 306 -27 45 -46 88 -45 103 1 13 31
65 66 116 60 86 66 92 108 100 24 4 133 6 242 3 l198 -6 98 -59 c129 -78 385
-210 491 -254 174 -72 407 -129 590 -144 357 -29 668 41 950 214 41 26 77 49
80 52 3 3 23 19 45 36 50 37 209 194 262 260 181 224 329 531 408 845 56 220
67 308 70 585 2 143 0 283 -5 310 -4 28 -10 73 -13 100 -12 107 -62 307 -112
447 -150 419 -469 813 -865 1071 -102 66 -254 147 -330 177 -30 12 -68 28 -85
35 -61 28 -310 98 -395 111 -223 35 -337 26 -745 -61 -131 -27 -345 -39 -715
-39 -322 0 -412 5 -568 35 -163 31 -309 89 -477 188 -168 99 -349 169 -537
207 -73 15 -408 30 -419 20z"/>
</g>
</svg>
