<svg width="1971" height="973" viewBox="0 0 1971 973" fill="none" xmlns="http://www.w3.org/2000/svg">
<g id="not-found">
<g id="main-box">
<g id="not-found_2">
<g id="404" filter="url(#filter0_d)">
<path d="M800 369.85H748.7V436H677.6V369.85H507.95V320.8L656.45 121H732.95L595.25 310.45H679.85V251.5H748.7V310.45H800V369.85ZM972.554 441.4C946.454 441.4 923.204 434.95 902.804 422.05C882.404 409.15 866.354 390.55 854.654 366.25C843.254 341.65 837.554 312.4 837.554 278.5C837.554 244.6 843.254 215.5 854.654 191.2C866.354 166.6 882.404 147.85 902.804 134.95C923.204 122.05 946.454 115.6 972.554 115.6C998.654 115.6 1021.9 122.05 1042.3 134.95C1062.7 147.85 1078.6 166.6 1090 191.2C1101.7 215.5 1107.55 244.6 1107.55 278.5C1107.55 312.4 1101.7 341.65 1090 366.25C1078.6 390.55 1062.7 409.15 1042.3 422.05C1021.9 434.95 998.654 441.4 972.554 441.4ZM972.554 379.75C991.754 379.75 1006.75 371.5 1017.55 355C1028.65 338.5 1034.2 313 1034.2 278.5C1034.2 244 1028.65 218.5 1017.55 202C1006.75 185.5 991.754 177.25 972.554 177.25C953.654 177.25 938.654 185.5 927.554 202C916.754 218.5 911.354 244 911.354 278.5C911.354 313 916.754 338.5 927.554 355C938.654 371.5 953.654 379.75 972.554 379.75ZM1447.17 369.85H1395.87V436H1324.77V369.85H1155.12V320.8L1303.62 121H1380.12L1242.42 310.45H1327.02V251.5H1395.87V310.45H1447.17V369.85Z" fill="#FF6F80"/>
<path d="M800 369.85V371.85H802V369.85H800ZM748.7 369.85V367.85H746.7V369.85H748.7ZM748.7 436V438H750.7V436H748.7ZM677.6 436H675.6V438H677.6V436ZM677.6 369.85H679.6V367.85H677.6V369.85ZM507.95 369.85H505.95V371.85H507.95V369.85ZM507.95 320.8L506.345 319.607L505.95 320.138V320.8H507.95ZM656.45 121V119H655.445L654.845 119.807L656.45 121ZM732.95 121L734.568 122.176L736.876 119H732.95V121ZM595.25 310.45L593.632 309.274L591.324 312.45H595.25V310.45ZM679.85 310.45V312.45H681.85V310.45H679.85ZM679.85 251.5V249.5H677.85V251.5H679.85ZM748.7 251.5H750.7V249.5H748.7V251.5ZM748.7 310.45H746.7V312.45H748.7V310.45ZM800 310.45H802V308.45H800V310.45ZM800 367.85H748.7V371.85H800V367.85ZM746.7 369.85V436H750.7V369.85H746.7ZM748.7 434H677.6V438H748.7V434ZM679.6 436V369.85H675.6V436H679.6ZM677.6 367.85H507.95V371.85H677.6V367.85ZM509.95 369.85V320.8H505.95V369.85H509.95ZM509.555 321.993L658.055 122.193L654.845 119.807L506.345 319.607L509.555 321.993ZM656.45 123H732.95V119H656.45V123ZM731.332 119.824L593.632 309.274L596.868 311.626L734.568 122.176L731.332 119.824ZM595.25 312.45H679.85V308.45H595.25V312.45ZM681.85 310.45V251.5H677.85V310.45H681.85ZM679.85 253.5H748.7V249.5H679.85V253.5ZM746.7 251.5V310.45H750.7V251.5H746.7ZM748.7 312.45H800V308.45H748.7V312.45ZM798 310.45V369.85H802V310.45H798ZM902.804 422.05L903.873 420.36L903.873 420.36L902.804 422.05ZM854.654 366.25L852.839 367.091L852.845 367.104L852.852 367.118L854.654 366.25ZM854.654 191.2L852.848 190.341L852.843 190.351L854.654 191.2ZM902.804 134.95L903.873 136.64L903.873 136.64L902.804 134.95ZM1042.3 134.95L1041.23 136.64L1041.23 136.64L1042.3 134.95ZM1090 191.2L1088.19 192.041L1088.2 192.054L1088.2 192.068L1090 191.2ZM1090 366.25L1088.2 365.391L1088.19 365.401L1090 366.25ZM1042.3 422.05L1041.23 420.36L1041.23 420.36L1042.3 422.05ZM1017.55 355L1015.89 353.884L1015.89 353.894L1015.88 353.905L1017.55 355ZM1017.55 202L1015.88 203.095L1015.89 203.106L1015.89 203.116L1017.55 202ZM927.554 202L925.894 200.884L925.887 200.894L925.881 200.905L927.554 202ZM927.554 355L925.881 356.095L925.887 356.106L925.894 356.116L927.554 355ZM972.554 439.4C946.8 439.4 923.927 433.041 903.873 420.36L901.735 423.74C922.481 436.859 946.108 443.4 972.554 443.4V439.4ZM903.873 420.36C883.826 407.683 868.013 389.386 856.456 365.382L852.852 367.118C864.695 391.714 880.982 410.617 901.735 423.74L903.873 420.36ZM856.469 365.409C845.217 341.13 839.554 312.18 839.554 278.5H835.554C835.554 312.62 841.291 342.17 852.839 367.091L856.469 365.409ZM839.554 278.5C839.554 244.819 845.218 216.023 856.465 192.049L852.843 190.351C841.29 214.977 835.554 244.381 835.554 278.5H839.554ZM856.46 192.059C868.019 167.755 883.832 149.313 903.873 136.64L901.735 133.26C880.976 146.387 864.689 165.445 852.848 190.341L856.46 192.059ZM903.873 136.64C923.927 123.959 946.8 117.6 972.554 117.6V113.6C946.108 113.6 922.481 120.141 901.735 133.26L903.873 136.64ZM972.554 117.6C998.308 117.6 1021.18 123.959 1041.23 136.64L1043.37 133.26C1022.63 120.141 999 113.6 972.554 113.6V117.6ZM1041.23 136.64C1061.27 149.31 1076.93 167.745 1088.19 192.041L1091.82 190.359C1080.28 165.454 1064.14 146.39 1043.37 133.26L1041.23 136.64ZM1088.2 192.068C1099.74 216.037 1105.55 244.825 1105.55 278.5H1109.55C1109.55 244.375 1103.67 214.963 1091.81 190.332L1088.2 192.068ZM1105.55 278.5C1105.55 312.174 1099.74 341.117 1088.2 365.391L1091.81 367.109C1103.66 342.183 1109.55 312.626 1109.55 278.5H1105.55ZM1088.19 365.401C1076.94 389.395 1061.28 407.686 1041.23 420.36L1043.37 423.74C1064.13 410.614 1080.27 391.705 1091.81 367.099L1088.19 365.401ZM1041.23 420.36C1021.18 433.041 998.308 439.4 972.554 439.4V443.4C999 443.4 1022.63 436.859 1043.37 423.74L1041.23 420.36ZM972.554 381.75C992.45 381.75 1008.07 373.141 1019.23 356.095L1015.88 353.905C1005.44 369.859 991.057 377.75 972.554 377.75V381.75ZM1019.21 356.116C1030.65 339.123 1036.2 313.139 1036.2 278.5H1032.2C1032.2 312.861 1026.66 337.877 1015.89 353.884L1019.21 356.116ZM1036.2 278.5C1036.2 243.861 1030.65 217.877 1019.21 200.884L1015.89 203.116C1026.66 219.123 1032.2 244.139 1032.2 278.5H1036.2ZM1019.23 200.905C1008.07 183.859 992.45 175.25 972.554 175.25V179.25C991.057 179.25 1005.44 187.141 1015.88 203.095L1019.23 200.905ZM972.554 175.25C952.948 175.25 937.343 183.866 925.894 200.884L929.213 203.116C939.965 187.134 954.36 179.25 972.554 179.25V175.25ZM925.881 200.905C914.761 217.893 909.354 243.867 909.354 278.5H913.354C913.354 244.133 918.747 219.107 929.227 203.095L925.881 200.905ZM909.354 278.5C909.354 313.133 914.761 339.107 925.881 356.095L929.227 353.905C918.747 337.893 913.354 312.867 913.354 278.5H909.354ZM925.894 356.116C937.343 373.134 952.948 381.75 972.554 381.75V377.75C954.36 377.75 939.965 369.866 929.213 353.884L925.894 356.116ZM1447.17 369.85V371.85H1449.17V369.85H1447.17ZM1395.87 369.85V367.85H1393.87V369.85H1395.87ZM1395.87 436V438H1397.87V436H1395.87ZM1324.77 436H1322.77V438H1324.77V436ZM1324.77 369.85H1326.77V367.85H1324.77V369.85ZM1155.12 369.85H1153.12V371.85H1155.12V369.85ZM1155.12 320.8L1153.52 319.607L1153.12 320.138V320.8H1155.12ZM1303.62 121V119H1302.62L1302.02 119.807L1303.62 121ZM1380.12 121L1381.74 122.176L1384.05 119H1380.12V121ZM1242.42 310.45L1240.81 309.274L1238.5 312.45H1242.42V310.45ZM1327.02 310.45V312.45H1329.02V310.45H1327.02ZM1327.02 251.5V249.5H1325.02V251.5H1327.02ZM1395.87 251.5H1397.87V249.5H1395.87V251.5ZM1395.87 310.45H1393.87V312.45H1395.87V310.45ZM1447.17 310.45H1449.17V308.45H1447.17V310.45ZM1447.17 367.85H1395.87V371.85H1447.17V367.85ZM1393.87 369.85V436H1397.87V369.85H1393.87ZM1395.87 434H1324.77V438H1395.87V434ZM1326.77 436V369.85H1322.77V436H1326.77ZM1324.77 367.85H1155.12V371.85H1324.77V367.85ZM1157.12 369.85V320.8H1153.12V369.85H1157.12ZM1156.73 321.993L1305.23 122.193L1302.02 119.807L1153.52 319.607L1156.73 321.993ZM1303.62 123H1380.12V119H1303.62V123ZM1378.51 119.824L1240.81 309.274L1244.04 311.626L1381.74 122.176L1378.51 119.824ZM1242.42 312.45H1327.02V308.45H1242.42V312.45ZM1329.02 310.45V251.5H1325.02V310.45H1329.02ZM1327.02 253.5H1395.87V249.5H1327.02V253.5ZM1393.87 251.5V310.45H1397.87V251.5H1393.87ZM1395.87 312.45H1447.17V308.45H1395.87V312.45ZM1445.17 310.45V369.85H1449.17V310.45H1445.17Z" fill="#C5172B" fill-opacity="0.25"/>
</g>
<g id="ERROR" filter="url(#filter1_d)">
<path d="M647.241 600.586V637H513.485V470.4H644.147V506.814H560.133V534.898H634.151V570.122H560.133V600.586H647.241ZM762.879 592.732H737.175V637H690.051V470.4H766.211C781.284 470.4 794.374 472.939 805.481 478.016C816.587 482.935 825.155 490.075 831.185 499.436C837.214 508.639 840.229 519.507 840.229 532.042C840.229 544.101 837.373 554.652 831.661 563.696C826.107 572.581 818.095 579.563 807.623 584.64L843.561 637H793.105L762.879 592.732ZM792.629 532.042C792.629 524.267 790.169 518.238 785.251 513.954C780.332 509.67 773.033 507.528 763.355 507.528H737.175V556.318H763.355C773.033 556.318 780.332 554.255 785.251 550.13C790.169 545.846 792.629 539.817 792.629 532.042ZM955.715 592.732H930.011V637H882.887V470.4H959.047C974.12 470.4 987.21 472.939 998.317 478.016C1009.42 482.935 1017.99 490.075 1024.02 499.436C1030.05 508.639 1033.06 519.507 1033.06 532.042C1033.06 544.101 1030.21 554.652 1024.5 563.696C1018.94 572.581 1010.93 579.563 1000.46 584.64L1036.4 637H985.941L955.715 592.732ZM985.465 532.042C985.465 524.267 983.005 518.238 978.087 513.954C973.168 509.67 965.869 507.528 956.191 507.528H930.011V556.318H956.191C965.869 556.318 973.168 554.255 978.087 550.13C983.005 545.846 985.465 539.817 985.465 532.042ZM1159.74 640.332C1142.12 640.332 1126.26 636.603 1112.14 629.146C1098.17 621.689 1087.15 611.375 1079.05 598.206C1071.12 585.037 1067.15 570.201 1067.15 553.7C1067.15 537.199 1071.12 522.363 1079.05 509.194C1087.15 496.025 1098.17 485.711 1112.14 478.254C1126.26 470.797 1142.12 467.068 1159.74 467.068C1177.35 467.068 1193.14 470.797 1207.1 478.254C1221.22 485.711 1232.25 496.025 1240.18 509.194C1248.27 522.363 1252.32 537.199 1252.32 553.7C1252.32 570.201 1248.27 585.037 1240.18 598.206C1232.25 611.375 1221.22 621.689 1207.1 629.146C1193.14 636.603 1177.35 640.332 1159.74 640.332ZM1159.74 601.3C1168.15 601.3 1175.76 599.317 1182.58 595.35C1189.41 591.383 1194.8 585.83 1198.77 578.69C1202.73 571.391 1204.72 563.061 1204.72 553.7C1204.72 544.339 1202.73 536.088 1198.77 528.948C1194.8 521.649 1189.41 516.017 1182.58 512.05C1175.76 508.083 1168.15 506.1 1159.74 506.1C1151.33 506.1 1143.71 508.083 1136.89 512.05C1130.07 516.017 1124.67 521.649 1120.7 528.948C1116.74 536.088 1114.75 544.339 1114.75 553.7C1114.75 563.061 1116.74 571.391 1120.7 578.69C1124.67 585.83 1130.07 591.383 1136.89 595.35C1143.71 599.317 1151.33 601.3 1159.74 601.3ZM1366.49 592.732H1340.78V637H1293.66V470.4H1369.82C1384.89 470.4 1397.98 472.939 1409.09 478.016C1420.2 482.935 1428.76 490.075 1434.79 499.436C1440.82 508.639 1443.84 519.507 1443.84 532.042C1443.84 544.101 1440.98 554.652 1435.27 563.696C1429.72 572.581 1421.7 579.563 1411.23 584.64L1447.17 637H1396.71L1366.49 592.732ZM1396.24 532.042C1396.24 524.267 1393.78 518.238 1388.86 513.954C1383.94 509.67 1376.64 507.528 1366.96 507.528H1340.78V556.318H1366.96C1376.64 556.318 1383.94 554.255 1388.86 550.13C1393.78 545.846 1396.24 539.817 1396.24 532.042Z" fill="#FF6F80"/>
<path d="M647.241 600.586H649.241V598.586H647.241V600.586ZM647.241 637V639H649.241V637H647.241ZM513.485 637H511.485V639H513.485V637ZM513.485 470.4V468.4H511.485V470.4H513.485ZM644.147 470.4H646.147V468.4H644.147V470.4ZM644.147 506.814V508.814H646.147V506.814H644.147ZM560.133 506.814V504.814H558.133V506.814H560.133ZM560.133 534.898H558.133V536.898H560.133V534.898ZM634.151 534.898H636.151V532.898H634.151V534.898ZM634.151 570.122V572.122H636.151V570.122H634.151ZM560.133 570.122V568.122H558.133V570.122H560.133ZM560.133 600.586H558.133V602.586H560.133V600.586ZM645.241 600.586V637H649.241V600.586H645.241ZM647.241 635H513.485V639H647.241V635ZM515.485 637V470.4H511.485V637H515.485ZM513.485 472.4H644.147V468.4H513.485V472.4ZM642.147 470.4V506.814H646.147V470.4H642.147ZM644.147 504.814H560.133V508.814H644.147V504.814ZM558.133 506.814V534.898H562.133V506.814H558.133ZM560.133 536.898H634.151V532.898H560.133V536.898ZM632.151 534.898V570.122H636.151V534.898H632.151ZM634.151 568.122H560.133V572.122H634.151V568.122ZM558.133 570.122V600.586H562.133V570.122H558.133ZM560.133 602.586H647.241V598.586H560.133V602.586ZM762.879 592.732L764.53 591.604L763.935 590.732H762.879V592.732ZM737.175 592.732V590.732H735.175V592.732H737.175ZM737.175 637V639H739.175V637H737.175ZM690.051 637H688.051V639H690.051V637ZM690.051 470.4V468.4H688.051V470.4H690.051ZM805.481 478.016L804.649 479.835L804.66 479.84L804.671 479.845L805.481 478.016ZM831.185 499.436L829.503 500.519L829.508 500.526L829.512 500.532L831.185 499.436ZM831.661 563.696L829.97 562.628L829.965 562.636L831.661 563.696ZM807.623 584.64L806.75 582.84L804.658 583.855L805.974 585.772L807.623 584.64ZM843.561 637V639H847.359L845.21 635.868L843.561 637ZM793.105 637L791.453 638.128L792.049 639H793.105V637ZM737.175 507.528V505.528H735.175V507.528H737.175ZM737.175 556.318H735.175V558.318H737.175V556.318ZM785.251 550.13L786.536 551.662L786.55 551.65L786.564 551.638L785.251 550.13ZM762.879 590.732H737.175V594.732H762.879V590.732ZM735.175 592.732V637H739.175V592.732H735.175ZM737.175 635H690.051V639H737.175V635ZM692.051 637V470.4H688.051V637H692.051ZM690.051 472.4H766.211V468.4H690.051V472.4ZM766.211 472.4C781.063 472.4 793.857 474.901 804.649 479.835L806.312 476.197C794.891 470.976 781.506 468.4 766.211 468.4V472.4ZM804.671 479.845C815.454 484.62 823.705 491.516 829.503 500.519L832.866 498.353C826.606 488.634 817.721 481.249 806.291 476.187L804.671 479.845ZM829.512 500.532C835.299 509.365 838.229 519.841 838.229 532.042H842.229C842.229 519.174 839.129 507.912 832.858 498.34L829.512 500.532ZM838.229 532.042C838.229 543.772 835.455 553.943 829.97 562.628L833.352 564.764C839.291 555.361 842.229 544.429 842.229 532.042H838.229ZM829.965 562.636C824.633 571.168 816.922 577.908 806.75 582.84L808.495 586.44C819.267 581.217 827.582 573.995 833.357 564.756L829.965 562.636ZM805.974 585.772L841.912 638.132L845.21 635.868L809.272 583.508L805.974 585.772ZM843.561 635H793.105V639H843.561V635ZM794.756 635.872L764.53 591.604L761.227 593.86L791.453 638.128L794.756 635.872ZM794.629 532.042C794.629 523.811 792.003 517.183 786.564 512.446L783.937 515.462C788.336 519.293 790.629 524.724 790.629 532.042H794.629ZM786.564 512.446C781.141 507.722 773.289 505.528 763.355 505.528V509.528C772.778 509.528 779.524 511.618 783.937 515.462L786.564 512.446ZM763.355 505.528H737.175V509.528H763.355V505.528ZM735.175 507.528V556.318H739.175V507.528H735.175ZM737.175 558.318H763.355V554.318H737.175V558.318ZM763.355 558.318C773.274 558.318 781.114 556.21 786.536 551.662L783.966 548.598C779.551 552.3 772.793 554.318 763.355 554.318V558.318ZM786.564 551.638C792.003 546.901 794.629 540.273 794.629 532.042H790.629C790.629 539.36 788.336 544.791 783.937 548.622L786.564 551.638ZM955.715 592.732L957.366 591.604L956.771 590.732H955.715V592.732ZM930.011 592.732V590.732H928.011V592.732H930.011ZM930.011 637V639H932.011V637H930.011ZM882.887 637H880.887V639H882.887V637ZM882.887 470.4V468.4H880.887V470.4H882.887ZM998.317 478.016L997.485 479.835L997.496 479.84L997.507 479.845L998.317 478.016ZM1024.02 499.436L1022.34 500.519L1022.34 500.526L1022.35 500.532L1024.02 499.436ZM1024.5 563.696L1022.81 562.628L1022.8 562.636L1024.5 563.696ZM1000.46 584.64L999.586 582.84L997.494 583.855L998.81 585.772L1000.46 584.64ZM1036.4 637V639H1040.2L1038.05 635.868L1036.4 637ZM985.941 637L984.289 638.128L984.884 639H985.941V637ZM930.011 507.528V505.528H928.011V507.528H930.011ZM930.011 556.318H928.011V558.318H930.011V556.318ZM978.087 550.13L979.372 551.662L979.386 551.65L979.4 551.638L978.087 550.13ZM955.715 590.732H930.011V594.732H955.715V590.732ZM928.011 592.732V637H932.011V592.732H928.011ZM930.011 635H882.887V639H930.011V635ZM884.887 637V470.4H880.887V637H884.887ZM882.887 472.4H959.047V468.4H882.887V472.4ZM959.047 472.4C973.899 472.4 986.693 474.901 997.485 479.835L999.148 476.197C987.727 470.976 974.341 468.4 959.047 468.4V472.4ZM997.507 479.845C1008.29 484.62 1016.54 491.516 1022.34 500.519L1025.7 498.353C1019.44 488.634 1010.56 481.249 999.126 476.187L997.507 479.845ZM1022.35 500.532C1028.13 509.365 1031.06 519.841 1031.06 532.042H1035.06C1035.06 519.174 1031.96 507.912 1025.69 498.34L1022.35 500.532ZM1031.06 532.042C1031.06 543.772 1028.29 553.943 1022.81 562.628L1026.19 564.764C1032.13 555.361 1035.06 544.429 1035.06 532.042H1031.06ZM1022.8 562.636C1017.47 571.168 1009.76 577.908 999.586 582.84L1001.33 586.44C1012.1 581.217 1020.42 573.995 1026.19 564.756L1022.8 562.636ZM998.81 585.772L1034.75 638.132L1038.05 635.868L1002.11 583.508L998.81 585.772ZM1036.4 635H985.941V639H1036.4V635ZM987.592 635.872L957.366 591.604L954.063 593.86L984.289 638.128L987.592 635.872ZM987.465 532.042C987.465 523.811 984.839 517.183 979.4 512.446L976.773 515.462C981.171 519.293 983.465 524.724 983.465 532.042H987.465ZM979.4 512.446C973.976 507.722 966.125 505.528 956.191 505.528V509.528C965.614 509.528 972.359 511.618 976.773 515.462L979.4 512.446ZM956.191 505.528H930.011V509.528H956.191V505.528ZM928.011 507.528V556.318H932.011V507.528H928.011ZM930.011 558.318H956.191V554.318H930.011V558.318ZM956.191 558.318C966.11 558.318 973.949 556.21 979.372 551.662L976.801 548.598C972.386 552.3 965.629 554.318 956.191 554.318V558.318ZM979.4 551.638C984.839 546.901 987.465 540.273 987.465 532.042H983.465C983.465 539.36 981.171 544.791 976.773 548.622L979.4 551.638ZM1112.14 629.146L1111.19 630.91L1111.2 630.915L1112.14 629.146ZM1079.05 598.206L1077.34 599.238L1077.35 599.246L1077.35 599.253L1079.05 598.206ZM1079.05 509.194L1077.35 508.147L1077.35 508.154L1077.34 508.162L1079.05 509.194ZM1112.14 478.254L1111.2 476.485L1111.19 476.49L1112.14 478.254ZM1207.1 478.254L1206.16 480.018L1206.16 480.023L1207.1 478.254ZM1240.18 509.194L1238.47 510.226L1238.47 510.234L1238.48 510.241L1240.18 509.194ZM1240.18 598.206L1238.48 597.159L1238.47 597.166L1238.47 597.174L1240.18 598.206ZM1207.1 629.146L1206.16 627.377L1206.16 627.382L1207.1 629.146ZM1182.58 595.35L1183.59 597.079L1183.59 597.079L1182.58 595.35ZM1198.77 578.69L1200.52 579.661L1200.52 579.653L1200.53 579.645L1198.77 578.69ZM1198.77 528.948L1197.01 529.903L1197.02 529.911L1197.02 529.919L1198.77 528.948ZM1182.58 512.05L1183.59 510.321L1183.59 510.321L1182.58 512.05ZM1136.89 512.05L1135.88 510.321L1135.88 510.321L1136.89 512.05ZM1120.7 528.948L1122.45 529.919L1122.46 529.911L1122.46 529.903L1120.7 528.948ZM1120.7 578.69L1118.95 579.645L1118.95 579.653L1118.96 579.661L1120.7 578.69ZM1136.89 595.35L1137.89 593.621L1137.89 593.621L1136.89 595.35ZM1159.74 638.332C1142.42 638.332 1126.88 634.668 1113.07 627.377L1111.2 630.915C1125.64 638.539 1141.83 642.332 1159.74 642.332V638.332ZM1113.08 627.382C1099.42 620.087 1088.66 610.018 1080.76 597.159L1077.35 599.253C1085.63 612.732 1096.93 623.29 1111.19 630.91L1113.08 627.382ZM1080.77 597.174C1073.04 584.339 1069.15 569.865 1069.15 553.7H1065.15C1065.15 570.537 1069.21 585.734 1077.34 599.238L1080.77 597.174ZM1069.15 553.7C1069.15 537.535 1073.04 523.061 1080.77 510.226L1077.34 508.162C1069.21 521.666 1065.15 536.863 1065.15 553.7H1069.15ZM1080.76 510.241C1088.66 497.382 1099.42 487.312 1113.08 480.018L1111.19 476.49C1096.93 484.11 1085.63 494.668 1077.35 508.147L1080.76 510.241ZM1113.07 480.023C1126.88 472.732 1142.42 469.068 1159.74 469.068V465.068C1141.83 465.068 1125.64 468.861 1111.2 476.485L1113.07 480.023ZM1159.74 469.068C1177.06 469.068 1192.51 472.732 1206.16 480.018L1208.04 476.49C1193.76 468.861 1177.64 465.068 1159.74 465.068V469.068ZM1206.16 480.023C1219.98 487.317 1230.73 497.381 1238.47 510.226L1241.89 508.162C1233.76 494.668 1222.46 484.106 1208.03 476.485L1206.16 480.023ZM1238.48 510.241C1246.36 523.074 1250.32 537.542 1250.32 553.7H1254.32C1254.32 536.855 1250.18 521.653 1241.88 508.147L1238.48 510.241ZM1250.32 553.7C1250.32 569.858 1246.36 584.326 1238.48 597.159L1241.88 599.253C1250.18 585.747 1254.32 570.545 1254.32 553.7H1250.32ZM1238.47 597.174C1230.73 610.019 1219.98 620.083 1206.16 627.377L1208.03 630.915C1222.46 623.294 1233.76 612.732 1241.89 599.238L1238.47 597.174ZM1206.16 627.382C1192.51 634.668 1177.06 638.332 1159.74 638.332V642.332C1177.64 642.332 1193.76 638.539 1208.04 630.91L1206.16 627.382ZM1159.74 603.3C1168.47 603.3 1176.44 601.235 1183.59 597.079L1181.58 593.621C1175.08 597.398 1167.82 599.3 1159.74 599.3V603.3ZM1183.59 597.079C1190.73 592.925 1196.38 587.105 1200.52 579.661L1197.02 577.719C1193.22 584.555 1188.08 589.842 1181.58 593.621L1183.59 597.079ZM1200.53 579.645C1204.67 572.018 1206.72 563.352 1206.72 553.7H1202.72C1202.72 562.771 1200.8 570.765 1197.01 577.735L1200.53 579.645ZM1206.72 553.7C1206.72 544.049 1204.67 535.455 1200.52 527.977L1197.02 529.919C1200.8 536.721 1202.72 544.628 1202.72 553.7H1206.72ZM1200.53 527.993C1196.39 520.39 1190.75 514.482 1183.59 510.321L1181.58 513.779C1188.07 517.552 1193.21 522.909 1197.01 529.903L1200.53 527.993ZM1183.59 510.321C1176.44 506.165 1168.47 504.1 1159.74 504.1V508.1C1167.82 508.1 1175.08 510.002 1181.58 513.779L1183.59 510.321ZM1159.74 504.1C1151 504.1 1143.03 506.165 1135.88 510.321L1137.89 513.779C1144.39 510.002 1151.66 508.1 1159.74 508.1V504.1ZM1135.88 510.321C1128.73 514.482 1123.08 520.39 1118.95 527.993L1122.46 529.903C1126.26 522.909 1131.4 517.552 1137.89 513.779L1135.88 510.321ZM1118.96 527.977C1114.8 535.455 1112.75 544.049 1112.75 553.7H1116.75C1116.75 544.628 1118.67 536.721 1122.45 529.919L1118.96 527.977ZM1112.75 553.7C1112.75 563.352 1114.8 572.018 1118.95 579.645L1122.46 577.735C1118.67 570.765 1116.75 562.771 1116.75 553.7H1112.75ZM1118.96 579.661C1123.09 587.105 1128.74 592.925 1135.88 597.079L1137.89 593.621C1131.39 589.842 1126.25 584.555 1122.45 577.719L1118.96 579.661ZM1135.88 597.079C1143.03 601.235 1151 603.3 1159.74 603.3V599.3C1151.66 599.3 1144.39 597.398 1137.89 593.621L1135.88 597.079ZM1366.49 592.732L1368.14 591.604L1367.54 590.732H1366.49V592.732ZM1340.78 592.732V590.732H1338.78V592.732H1340.78ZM1340.78 637V639H1342.78V637H1340.78ZM1293.66 637H1291.66V639H1293.66V637ZM1293.66 470.4V468.4H1291.66V470.4H1293.66ZM1409.09 478.016L1408.26 479.835L1408.27 479.84L1408.28 479.845L1409.09 478.016ZM1434.79 499.436L1433.11 500.519L1433.12 500.526L1433.12 500.532L1434.79 499.436ZM1435.27 563.696L1433.58 562.628L1433.57 562.636L1435.27 563.696ZM1411.23 584.64L1410.36 582.84L1408.27 583.855L1409.58 585.772L1411.23 584.64ZM1447.17 637V639H1450.97L1448.82 635.868L1447.17 637ZM1396.71 637L1395.06 638.128L1395.66 639H1396.71V637ZM1340.78 507.528V505.528H1338.78V507.528H1340.78ZM1340.78 556.318H1338.78V558.318H1340.78V556.318ZM1388.86 550.13L1390.14 551.662L1390.16 551.65L1390.17 551.638L1388.86 550.13ZM1366.49 590.732H1340.78V594.732H1366.49V590.732ZM1338.78 592.732V637H1342.78V592.732H1338.78ZM1340.78 635H1293.66V639H1340.78V635ZM1295.66 637V470.4H1291.66V637H1295.66ZM1293.66 472.4H1369.82V468.4H1293.66V472.4ZM1369.82 472.4C1384.67 472.4 1397.47 474.901 1408.26 479.835L1409.92 476.197C1398.5 470.976 1385.11 468.4 1369.82 468.4V472.4ZM1408.28 479.845C1419.06 484.62 1427.31 491.516 1433.11 500.519L1436.48 498.353C1430.22 488.634 1421.33 481.249 1409.9 476.187L1408.28 479.845ZM1433.12 500.532C1438.91 509.365 1441.84 519.841 1441.84 532.042H1445.84C1445.84 519.174 1442.74 507.912 1436.47 498.34L1433.12 500.532ZM1441.84 532.042C1441.84 543.772 1439.06 553.943 1433.58 562.628L1436.96 564.764C1442.9 555.361 1445.84 544.429 1445.84 532.042H1441.84ZM1433.57 562.636C1428.24 571.168 1420.53 577.908 1410.36 582.84L1412.1 586.44C1422.88 581.217 1431.19 573.995 1436.97 564.756L1433.57 562.636ZM1409.58 585.772L1445.52 638.132L1448.82 635.868L1412.88 583.508L1409.58 585.772ZM1447.17 635H1396.71V639H1447.17V635ZM1398.37 635.872L1368.14 591.604L1364.84 593.86L1395.06 638.128L1398.37 635.872ZM1398.24 532.042C1398.24 523.811 1395.61 517.183 1390.17 512.446L1387.55 515.462C1391.94 519.293 1394.24 524.724 1394.24 532.042H1398.24ZM1390.17 512.446C1384.75 507.722 1376.9 505.528 1366.96 505.528V509.528C1376.39 509.528 1383.13 511.618 1387.55 515.462L1390.17 512.446ZM1366.96 505.528H1340.78V509.528H1366.96V505.528ZM1338.78 507.528V556.318H1342.78V507.528H1338.78ZM1340.78 558.318H1366.96V554.318H1340.78V558.318ZM1366.96 558.318C1376.88 558.318 1384.72 556.21 1390.14 551.662L1387.57 548.598C1383.16 552.3 1376.4 554.318 1366.96 554.318V558.318ZM1390.17 551.638C1395.61 546.901 1398.24 540.273 1398.24 532.042H1394.24C1394.24 539.36 1391.94 544.791 1387.55 548.622L1390.17 551.638Z" fill="#C5172B" fill-opacity="0.25"/>
</g>
<path id="page not found" d="M257.888 859.6C267.717 859.6 276.28 861.221 283.576 864.464C290.872 867.707 296.496 872.368 300.448 878.448C304.4 884.528 306.376 891.621 306.376 899.728C306.376 907.835 304.4 914.928 300.448 921.008C296.496 927.088 290.872 931.749 283.576 934.992C276.28 938.235 267.717 939.856 257.888 939.856H242.536V966H206.664V859.6H257.888ZM255.608 912.192C260.472 912.192 264.12 911.128 266.552 909C268.984 906.771 270.2 903.68 270.2 899.728C270.2 895.776 268.984 892.736 266.552 890.608C264.12 888.379 260.472 887.264 255.608 887.264H242.536V912.192H255.608ZM390.621 947.456H350.189L343.045 966H306.565L353.077 859.6H388.341L434.853 966H397.765L390.621 947.456ZM380.741 921.616L370.405 894.864L360.069 921.616H380.741ZM514.789 909.912H545.949V954.904C539.667 959.261 532.371 962.605 524.061 964.936C515.752 967.267 507.595 968.432 499.589 968.432C488.24 968.432 478.056 966.101 469.037 961.44C460.019 956.677 452.925 950.091 447.757 941.68C442.691 933.168 440.157 923.541 440.157 912.8C440.157 902.059 442.691 892.483 447.757 884.072C452.925 875.56 460.069 868.973 469.189 864.312C478.411 859.549 488.797 857.168 500.349 857.168C510.787 857.168 520.109 858.941 528.317 862.488C536.627 865.933 543.517 871 548.989 877.688L526.037 897.904C519.349 890.101 511.395 886.2 502.173 886.2C494.269 886.2 487.987 888.581 483.325 893.344C478.664 898.107 476.333 904.592 476.333 912.8C476.333 920.805 478.613 927.24 483.173 932.104C487.835 936.968 494.016 939.4 501.717 939.4C506.277 939.4 510.635 938.539 514.789 936.816V909.912ZM655.018 938.944V966H566.554V859.6H653.042V886.656H601.818V899.12H646.81V924.96H601.818V938.944H655.018ZM829.917 859.6V966H800.429L759.997 917.664V966H725.037V859.6H754.525L794.957 907.936V859.6H829.917ZM908.305 968.432C896.855 968.432 886.569 966.051 877.449 961.288C868.329 956.525 861.185 949.939 856.017 941.528C850.849 933.016 848.265 923.44 848.265 912.8C848.265 902.16 850.849 892.635 856.017 884.224C861.185 875.712 868.329 869.075 877.449 864.312C886.569 859.549 896.855 857.168 908.305 857.168C919.756 857.168 930.041 859.549 939.161 864.312C948.281 869.075 955.425 875.712 960.593 884.224C965.761 892.635 968.345 902.16 968.345 912.8C968.345 923.44 965.761 933.016 960.593 941.528C955.425 949.939 948.281 956.525 939.161 961.288C930.041 966.051 919.756 968.432 908.305 968.432ZM908.305 939.4C912.764 939.4 916.767 938.336 920.313 936.208C923.961 933.979 926.849 930.888 928.977 926.936C931.105 922.883 932.169 918.171 932.169 912.8C932.169 907.429 931.105 902.768 928.977 898.816C926.849 894.763 923.961 891.672 920.313 889.544C916.767 887.315 912.764 886.2 908.305 886.2C903.847 886.2 899.793 887.315 896.145 889.544C892.599 891.672 889.761 894.763 887.633 898.816C885.505 902.768 884.441 907.429 884.441 912.8C884.441 918.171 885.505 922.883 887.633 926.936C889.761 930.888 892.599 933.979 896.145 936.208C899.793 938.336 903.847 939.4 908.305 939.4ZM1008.3 887.416H977.145V859.6H1075.34V887.416H1044.18V966H1008.3V887.416ZM1176.74 886.656V904.896H1221.12V931.952H1176.74V966H1140.86V859.6H1227.35V886.656H1176.74ZM1299.05 968.432C1287.6 968.432 1277.31 966.051 1268.19 961.288C1259.07 956.525 1251.93 949.939 1246.76 941.528C1241.59 933.016 1239.01 923.44 1239.01 912.8C1239.01 902.16 1241.59 892.635 1246.76 884.224C1251.93 875.712 1259.07 869.075 1268.19 864.312C1277.31 859.549 1287.6 857.168 1299.05 857.168C1310.5 857.168 1320.78 859.549 1329.9 864.312C1339.02 869.075 1346.17 875.712 1351.33 884.224C1356.5 892.635 1359.09 902.16 1359.09 912.8C1359.09 923.44 1356.5 933.016 1351.33 941.528C1346.17 949.939 1339.02 956.525 1329.9 961.288C1320.78 966.051 1310.5 968.432 1299.05 968.432ZM1299.05 939.4C1303.51 939.4 1307.51 938.336 1311.05 936.208C1314.7 933.979 1317.59 930.888 1319.72 926.936C1321.85 922.883 1322.91 918.171 1322.91 912.8C1322.91 907.429 1321.85 902.768 1319.72 898.816C1317.59 894.763 1314.7 891.672 1311.05 889.544C1307.51 887.315 1303.51 886.2 1299.05 886.2C1294.59 886.2 1290.53 887.315 1286.89 889.544C1283.34 891.672 1280.5 894.763 1278.37 898.816C1276.25 902.768 1275.18 907.429 1275.18 912.8C1275.18 918.171 1276.25 922.883 1278.37 926.936C1280.5 930.888 1283.34 933.979 1286.89 936.208C1290.53 938.336 1294.59 939.4 1299.05 939.4ZM1428.35 968.432C1412.03 968.432 1399.31 964.024 1390.19 955.208C1381.07 946.392 1376.51 934.029 1376.51 918.12V859.6H1412.39V917.056C1412.39 924.859 1413.75 930.533 1416.49 934.08C1419.33 937.627 1423.38 939.4 1428.65 939.4C1433.92 939.4 1437.92 937.627 1440.66 934.08C1443.5 930.533 1444.91 924.859 1444.91 917.056V859.6H1480.18V918.12C1480.18 934.029 1475.62 946.392 1466.5 955.208C1457.38 964.024 1444.66 968.432 1428.35 968.432ZM1606.82 859.6V966H1577.33L1536.9 917.664V966H1501.94V859.6H1531.43L1571.86 907.936V859.6H1606.82ZM1629.43 859.6H1681.87C1693.72 859.6 1704.16 861.779 1713.18 866.136C1722.3 870.392 1729.34 876.523 1734.31 884.528C1739.37 892.533 1741.91 901.957 1741.91 912.8C1741.91 923.643 1739.37 933.067 1734.31 941.072C1729.34 949.077 1722.3 955.259 1713.18 959.616C1704.16 963.872 1693.72 966 1681.87 966H1629.43V859.6ZM1680.35 938.032C1688.05 938.032 1694.18 935.853 1698.74 931.496C1703.4 927.037 1705.73 920.805 1705.73 912.8C1705.73 904.795 1703.4 898.613 1698.74 894.256C1694.18 889.797 1688.05 887.568 1680.35 887.568H1665.3V938.032H1680.35Z" fill="#515151"/>
</g>
</g>
<g id="Circles">
<g id="Group 3">
<circle id="Ellipse 4" cx="117" cy="748" r="55" fill="#222222" fill-opacity="0.1"/>
<circle id="Ellipse 8" cx="123.078" cy="759.471" r="23.3333" fill="white" fill-opacity="0.4"/>
</g>
<g id="Group 10">
<circle id="Ellipse 4_2" cx="62.5" cy="895.5" r="48.5" fill="#222222" fill-opacity="0.1"/>
<circle id="Ellipse 8_2" cx="61.7358" cy="908.962" r="20.5758" fill="white" fill-opacity="0.4"/>
</g>
<g id="Group 11">
<circle id="Ellipse 4_3" cx="1875.5" cy="913.5" r="42.5" fill="#222222" fill-opacity="0.1"/>
<circle id="Ellipse 8_3" cx="1882.2" cy="920.197" r="18.0303" fill="white" fill-opacity="0.4"/>
</g>
<g id="Group 2">
<path id="Ellipse 6" d="M146 561C146 601.317 113.317 634 73 634C32.6832 634 0 601.317 0 561C0 520.683 32.6832 488 73 488C113.317 488 146 520.683 146 561Z" fill="black" fill-opacity="0.1"/>
<circle id="Ellipse 8_4" cx="91.7714" cy="561" r="34.4143" fill="white" fill-opacity="0.4"/>
</g>
<g id="Group 6">
<ellipse id="Ellipse 1" cx="1768" cy="461" rx="86" ry="85" fill="#2C343B" fill-opacity="0.12"/>
<ellipse id="Ellipse 9" cx="1746.23" cy="467.456" rx="35.924" ry="35.5063" fill="white" fill-opacity="0.4"/>
</g>
<g id="Group 5">
<circle id="Ellipse 7" cx="1799.5" cy="765.5" r="53.5" fill="black" fill-opacity="0.1"/>
<circle id="Ellipse 9_2" cx="1813.75" cy="765.557" r="19.7105" fill="white" fill-opacity="0.4"/>
</g>
<g id="Group 4">
<circle id="Ellipse 3" cx="1899.5" cy="631.5" r="71.5" fill="black" fill-opacity="0.1"/>
<circle id="Ellipse 8_5" cx="1891.31" cy="612.397" r="32.7481" fill="white" fill-opacity="0.4"/>
</g>
<g id="Group 1">
<circle id="Ellipse 2" cx="153" cy="143" r="116" fill="black" fill-opacity="0.1"/>
<circle id="Ellipse 8_6" cx="191.326" cy="159.863" r="53.1454" fill="white" fill-opacity="0.4"/>
</g>
<g id="Group 7">
<circle id="Ellipse 2_2" cx="1789" cy="177" r="111" fill="black" fill-opacity="0.1"/>
<circle id="Ellipse 8_7" cx="1763.78" cy="150.897" r="56.7069" fill="white" fill-opacity="0.4"/>
</g>
<g id="Group 8">
<circle id="Ellipse 2_3" cx="269.5" cy="437.5" r="89.5" fill="black" fill-opacity="0.1"/>
<circle id="Ellipse 8_8" cx="283.599" cy="416.458" r="41.0044" fill="white" fill-opacity="0.4"/>
</g>
</g>
</g>
<defs>
<filter id="filter0_d" x="505.95" y="109.6" width="966.224" height="343.8" filterUnits="userSpaceOnUse" color-interpolation-filters="sRGB">
<feFlood flood-opacity="0" result="BackgroundImageFix"/>
<feColorMatrix in="SourceAlpha" type="matrix" values="0 0 0 0 0 0 0 0 0 0 0 0 0 0 0 0 0 0 127 0"/>
<feOffset dx="16" dy="3"/>
<feGaussianBlur stdDeviation="3.5"/>
<feColorMatrix type="matrix" values="0 0 0 0 0.133333 0 0 0 0 0.133333 0 0 0 0 0.133333 0 0 0 0.22 0"/>
<feBlend mode="normal" in2="BackgroundImageFix" result="effect1_dropShadow"/>
<feBlend mode="normal" in="SourceGraphic" in2="effect1_dropShadow" result="shape"/>
</filter>
<filter id="filter1_d" x="511.485" y="461.068" width="962.484" height="191.264" filterUnits="userSpaceOnUse" color-interpolation-filters="sRGB">
<feFlood flood-opacity="0" result="BackgroundImageFix"/>
<feColorMatrix in="SourceAlpha" type="matrix" values="0 0 0 0 0 0 0 0 0 0 0 0 0 0 0 0 0 0 127 0"/>
<feOffset dx="16" dy="3"/>
<feGaussianBlur stdDeviation="3.5"/>
<feColorMatrix type="matrix" values="0 0 0 0 0.133333 0 0 0 0 0.133333 0 0 0 0 0.133333 0 0 0 0.22 0"/>
<feBlend mode="normal" in2="BackgroundImageFix" result="effect1_dropShadow"/>
<feBlend mode="normal" in="SourceGraphic" in2="effect1_dropShadow" result="shape"/>
</filter>
</defs>
</svg>
